# xmcd CD database file
#
# Track frame offsets:
#	183
#	25613
#	49318
#	77210
#	98988
#	126103
#	148203
#	169843
#	188193
#
# Disc length: 2711 seconds
#
# Revision: 0
# Processed by: cddbd v1.5.1PL0 Copyright (c) Steve Scherf et al.
# Submitted via: CDex 1.51
#
DISCID=7b0a9509
DTITLE=Jack Lee - Ç³¿î
DYEAR=1991
DGENRE=Jazz
TTITLE0=Mr. Slippery
TTITLE1=Cheju-Do
TTITLE2=Poong-Un:Winds And Clouds-East
TTITLE3=Poong-Un:Winds And Clouds-West
TTITLE4=What Now
TTITLE5=Carolian
TTITLE6=Accidental Plan
TTITLE7=Claustrophobia
TTITLE8=Bell
EXTD=YEAR: 1991
EXTT0=
EXTT1=
EXTT2=
EXTT3=
EXTT4=
EXTT5=
EXTT6=
EXTT7=
EXTT8=
PLAYORDER=
